<svg width="699" height="992" viewBox="0 0 699 992" fill="none" xmlns="http://www.w3.org/2000/svg">
<path d="M0 36C0 16.1178 16.1178 0 36 0H663C682.882 0 699 16.1177 699 36V956C699 975.882 682.882 992 663 992H36C16.1178 992 0 975.882 0 956V36Z" fill="#287BFF"/>
<path d="M316.631 407.67C314.107 308.567 392.4 226.182 491.503 223.658C590.606 221.135 446.064 305.206 448.588 404.309C451.112 503.412 599.745 580.018 500.642 582.542C401.539 585.066 319.155 506.773 316.631 407.67Z" fill="white"/>
<path d="M394.306 395.107C403.943 493.773 331.771 581.57 233.106 591.207C134.44 600.844 272.568 506.605 262.931 407.94C253.293 309.274 99.5403 243.545 198.206 233.908C296.871 224.27 384.668 296.442 394.306 395.107Z" fill="white"/>
<path d="M519.873 402.494C522.249 495.8 448.536 573.366 355.23 575.742C343.185 576.048 336.403 574.944 332.945 573.538C331.93 573.125 331.44 572.78 331.243 572.616C331.24 572.589 331.238 572.558 331.237 572.521C331.169 571.081 331.941 567.674 335.398 561.364C338.66 555.41 343.438 548.378 349.306 540.091C350.919 537.814 352.605 535.454 354.346 533.019C365.019 518.087 377.741 500.287 388.094 480.93C400.165 458.359 409.605 432.653 408.909 405.32C408.212 377.987 397.476 352.794 384.272 330.867C372.948 312.062 359.336 294.933 347.917 280.564C346.054 278.22 344.25 275.95 342.524 273.757C336.241 265.78 331.112 258.999 327.551 253.22C323.777 247.094 322.833 243.73 322.827 242.288C322.827 242.252 322.827 242.221 322.828 242.194C323.017 242.019 323.488 241.65 324.482 241.186C327.863 239.606 334.581 238.158 346.625 237.851C439.931 235.475 517.496 309.188 519.873 402.494ZM322.721 242.304C322.721 242.304 322.722 242.302 322.725 242.299C322.723 242.302 322.721 242.304 322.721 242.304Z" fill="white" stroke="#287BFF" stroke-width="21"/>
<path d="M191.961 414.872C182.887 321.978 250.837 239.317 343.731 230.243C355.723 229.072 362.567 229.686 366.117 230.84C367.159 231.179 367.672 231.487 367.881 231.638C367.885 231.664 367.889 231.695 367.894 231.731C368.064 233.163 367.539 236.616 364.544 243.159C361.719 249.331 357.458 256.689 352.201 265.376C350.756 267.763 349.244 270.238 347.682 272.792C338.11 288.452 326.699 307.12 317.764 327.171C307.346 350.55 299.777 376.869 302.435 404.081C305.093 431.293 317.612 455.65 332.357 476.571C345.003 494.514 359.81 510.621 372.232 524.133C374.258 526.337 376.221 528.472 378.1 530.534C384.94 538.04 390.543 544.434 394.51 549.943C398.714 555.782 399.898 559.069 400.007 560.507C400.01 560.543 400.012 560.574 400.013 560.601C399.837 560.789 399.394 561.191 398.436 561.725C395.177 563.544 388.581 565.471 376.59 566.642C283.696 575.716 201.035 507.766 191.961 414.872ZM400.112 560.484C400.112 560.484 400.111 560.485 400.108 560.489C400.11 560.485 400.112 560.484 400.112 560.484Z" fill="white" stroke="#287BFF" stroke-width="21"/>
<path d="M148.864 712.552V635.072H178.608C183.947 635.072 188.661 636.008 192.752 637.88C196.912 639.752 200.171 642.525 202.528 646.2C204.885 649.874 206.064 654.416 206.064 659.824C206.064 665.093 204.851 669.565 202.424 673.24C200.067 676.914 196.808 679.722 192.648 681.664C188.557 683.536 183.877 684.472 178.608 684.472H164.984V712.552H148.864ZM164.984 670.432H178.712C181 670.432 182.976 669.981 184.64 669.08C186.304 668.178 187.587 666.93 188.488 665.336C189.459 663.741 189.944 661.904 189.944 659.824C189.944 657.674 189.459 655.802 188.488 654.208C187.587 652.613 186.304 651.365 184.64 650.464C182.976 649.562 181 649.112 178.712 649.112H164.984V670.432ZM215.259 712.552V655.768H230.859V712.552H215.259ZM215.259 650.672V635.072H230.859V650.672H215.259ZM242.275 733.352V655.768H256.835V666.584L255.483 663.464C257.355 660.621 259.885 658.437 263.075 656.912C266.333 655.317 270.043 654.52 274.203 654.52C279.611 654.52 284.499 655.837 288.867 658.472C293.235 661.106 296.701 664.677 299.267 669.184C301.832 673.621 303.115 678.613 303.115 684.16C303.115 689.637 301.832 694.629 299.267 699.136C296.771 703.642 293.339 707.213 288.971 709.848C284.603 712.482 279.645 713.8 274.099 713.8C270.216 713.8 266.611 713.106 263.283 711.72C260.024 710.264 257.389 708.149 255.379 705.376L257.875 702.152V733.352H242.275ZM272.227 699.76C275.139 699.76 277.704 699.101 279.923 697.784C282.141 696.466 283.875 694.629 285.123 692.272C286.371 689.914 286.995 687.21 286.995 684.16C286.995 681.109 286.371 678.44 285.123 676.152C283.875 673.794 282.141 671.957 279.923 670.64C277.704 669.253 275.139 668.56 272.227 668.56C269.453 668.56 266.957 669.218 264.739 670.536C262.589 671.853 260.891 673.69 259.643 676.048C258.464 678.405 257.875 681.109 257.875 684.16C257.875 687.21 258.464 689.914 259.643 692.272C260.891 694.629 262.589 696.466 264.739 697.784C266.957 699.101 269.453 699.76 272.227 699.76ZM329.827 713.8C325.737 713.8 322.201 713.141 319.219 711.824C316.238 710.506 313.95 708.634 312.355 706.208C310.761 703.712 309.963 700.765 309.963 697.368C309.963 694.178 310.691 691.37 312.147 688.944C313.603 686.448 315.822 684.368 318.803 682.704C321.854 681.04 325.633 679.861 330.139 679.168L347.507 676.36V687.8L332.947 690.4C330.729 690.816 329.03 691.544 327.851 692.584C326.673 693.554 326.083 694.976 326.083 696.848C326.083 698.581 326.742 699.933 328.059 700.904C329.377 701.874 331.006 702.36 332.947 702.36C335.513 702.36 337.766 701.805 339.707 700.696C341.649 699.586 343.139 698.096 344.179 696.224C345.289 694.282 345.843 692.168 345.843 689.88V675.112C345.843 672.962 344.977 671.16 343.243 669.704C341.579 668.248 339.291 667.52 336.379 667.52C333.606 667.52 331.145 668.282 328.995 669.808C326.915 671.333 325.39 673.344 324.419 675.84L311.939 669.912C313.049 666.722 314.817 663.984 317.243 661.696C319.67 659.408 322.582 657.64 325.979 656.392C329.377 655.144 333.086 654.52 337.107 654.52C341.891 654.52 346.121 655.386 349.795 657.12C353.47 658.853 356.313 661.28 358.323 664.4C360.403 667.45 361.443 671.021 361.443 675.112V712.552H346.883V703.4L350.419 702.776C348.755 705.272 346.918 707.352 344.907 709.016C342.897 710.61 340.643 711.789 338.147 712.552C335.651 713.384 332.878 713.8 329.827 713.8ZM372.884 712.552V655.768H387.444V667L386.612 664.504C387.929 661.106 390.044 658.61 392.956 657.016C395.937 655.352 399.404 654.52 403.356 654.52C407.655 654.52 411.399 655.421 414.588 657.224C417.847 659.026 420.377 661.557 422.18 664.816C423.983 668.005 424.884 671.749 424.884 676.048V712.552H409.284V679.376C409.284 677.157 408.833 675.25 407.932 673.656C407.1 672.061 405.887 670.813 404.292 669.912C402.767 669.01 400.964 668.56 398.884 668.56C396.873 668.56 395.071 669.01 393.476 669.912C391.881 670.813 390.633 672.061 389.732 673.656C388.9 675.25 388.484 677.157 388.484 679.376V712.552H372.884ZM463.014 713.8C457.329 713.8 452.198 712.517 447.622 709.952C443.115 707.317 439.51 703.746 436.806 699.24C434.171 694.733 432.854 689.672 432.854 684.056C432.854 678.44 434.171 673.413 436.806 668.976C439.441 664.469 443.046 660.933 447.622 658.368C452.198 655.802 457.329 654.52 463.014 654.52C467.243 654.52 471.161 655.248 474.766 656.704C478.371 658.16 481.457 660.205 484.022 662.84C486.587 665.405 488.425 668.456 489.534 671.992L476.014 677.816C475.043 674.973 473.379 672.72 471.022 671.056C468.734 669.392 466.065 668.56 463.014 668.56C460.31 668.56 457.883 669.218 455.734 670.536C453.654 671.853 451.99 673.69 450.742 676.048C449.563 678.405 448.974 681.109 448.974 684.16C448.974 687.21 449.563 689.914 450.742 692.272C451.99 694.629 453.654 696.466 455.734 697.784C457.883 699.101 460.31 699.76 463.014 699.76C466.134 699.76 468.838 698.928 471.126 697.264C473.414 695.6 475.043 693.346 476.014 690.504L489.534 696.432C488.494 699.76 486.691 702.741 484.126 705.376C481.561 708.01 478.475 710.09 474.87 711.616C471.265 713.072 467.313 713.8 463.014 713.8ZM526.072 713.8C520.04 713.8 514.805 712.482 510.368 709.848C505.931 707.144 502.499 703.538 500.072 699.032C497.645 694.525 496.432 689.533 496.432 684.056C496.432 678.37 497.68 673.309 500.176 668.872C502.741 664.434 506.173 660.933 510.472 658.368C514.771 655.802 519.624 654.52 525.032 654.52C529.539 654.52 533.525 655.248 536.992 656.704C540.459 658.09 543.371 660.066 545.728 662.632C548.155 665.197 549.992 668.178 551.24 671.576C552.488 674.904 553.112 678.544 553.112 682.496C553.112 683.605 553.043 684.714 552.904 685.824C552.835 686.864 552.661 687.765 552.384 688.528H509.848V677.088H543.544L536.16 682.496C536.853 679.514 536.819 676.88 536.056 674.592C535.293 672.234 533.941 670.397 532 669.08C530.128 667.693 527.805 667 525.032 667C522.328 667 520.005 667.658 518.064 668.976C516.123 670.293 514.667 672.234 513.696 674.8C512.725 677.365 512.344 680.485 512.552 684.16C512.275 687.349 512.656 690.157 513.696 692.584C514.736 695.01 516.331 696.917 518.48 698.304C520.629 699.621 523.229 700.28 526.28 700.28C529.053 700.28 531.411 699.725 533.352 698.616C535.363 697.506 536.923 695.981 538.032 694.04L550.512 699.968C549.403 702.741 547.635 705.168 545.208 707.248C542.851 709.328 540.043 710.957 536.784 712.136C533.525 713.245 529.955 713.8 526.072 713.8Z" fill="white"/>
<path d="M188.405 770.552V752.672H194.549C195.717 752.672 196.741 752.904 197.621 753.368C198.501 753.816 199.181 754.456 199.661 755.288C200.157 756.104 200.405 757.056 200.405 758.144C200.405 759.408 200.069 760.488 199.397 761.384C198.741 762.28 197.845 762.912 196.709 763.28L200.885 770.552H198.629L194.261 762.848L195.557 763.592H190.325V770.552H188.405ZM190.325 761.792H194.645C195.413 761.792 196.085 761.648 196.661 761.36C197.237 761.056 197.685 760.632 198.005 760.088C198.325 759.528 198.485 758.872 198.485 758.12C198.485 757.368 198.325 756.72 198.005 756.176C197.685 755.632 197.237 755.216 196.661 754.928C196.085 754.624 195.413 754.472 194.645 754.472H190.325V761.792ZM208.645 770.84C207.445 770.84 206.357 770.552 205.381 769.976C204.421 769.384 203.661 768.576 203.101 767.552C202.541 766.528 202.261 765.368 202.261 764.072C202.261 762.776 202.533 761.632 203.077 760.64C203.621 759.632 204.357 758.84 205.285 758.264C206.229 757.688 207.285 757.4 208.453 757.4C209.381 757.4 210.205 757.576 210.925 757.928C211.661 758.264 212.285 758.728 212.797 759.32C213.309 759.896 213.701 760.552 213.973 761.288C214.245 762.008 214.381 762.752 214.381 763.52C214.381 763.68 214.373 763.864 214.357 764.072C214.341 764.264 214.317 764.464 214.285 764.672H203.413V762.992H213.253L212.389 763.712C212.533 762.832 212.429 762.048 212.077 761.36C211.741 760.656 211.253 760.104 210.613 759.704C209.973 759.288 209.253 759.08 208.453 759.08C207.653 759.08 206.909 759.288 206.221 759.704C205.549 760.12 205.021 760.704 204.637 761.456C204.253 762.192 204.101 763.072 204.181 764.096C204.101 765.12 204.261 766.016 204.661 766.784C205.077 767.536 205.637 768.12 206.341 768.536C207.061 768.952 207.829 769.16 208.645 769.16C209.589 769.16 210.381 768.936 211.021 768.488C211.661 768.04 212.181 767.48 212.581 766.808L214.117 767.624C213.861 768.2 213.469 768.736 212.941 769.232C212.413 769.712 211.781 770.104 211.045 770.408C210.325 770.696 209.525 770.84 208.645 770.84ZM223.435 770.84C222.171 770.84 221.059 770.544 220.099 769.952C219.139 769.36 218.387 768.56 217.843 767.552C217.299 766.528 217.027 765.376 217.027 764.096C217.027 762.816 217.299 761.672 217.843 760.664C218.387 759.656 219.139 758.864 220.099 758.288C221.059 757.696 222.171 757.4 223.435 757.4C224.235 757.4 224.987 757.544 225.691 757.832C226.395 758.12 227.019 758.512 227.563 759.008C228.107 759.488 228.515 760.048 228.787 760.688L227.155 761.528C226.835 760.84 226.347 760.28 225.691 759.848C225.035 759.416 224.283 759.2 223.435 759.2C222.587 759.2 221.819 759.416 221.131 759.848C220.459 760.264 219.923 760.848 219.523 761.6C219.139 762.336 218.947 763.176 218.947 764.12C218.947 765.048 219.139 765.888 219.523 766.64C219.923 767.376 220.459 767.96 221.131 768.392C221.819 768.824 222.587 769.04 223.435 769.04C224.283 769.04 225.027 768.824 225.667 768.392C226.323 767.96 226.819 767.384 227.155 766.664L228.787 767.552C228.515 768.176 228.107 768.736 227.563 769.232C227.019 769.728 226.395 770.12 225.691 770.408C224.987 770.696 224.235 770.84 223.435 770.84ZM232.21 775.832C231.954 775.832 231.69 775.808 231.418 775.76C231.162 775.728 230.906 775.664 230.65 775.568V773.888C230.81 773.904 231.01 773.928 231.25 773.96C231.506 774.008 231.762 774.032 232.018 774.032C232.802 774.032 233.402 773.864 233.818 773.528C234.234 773.208 234.642 772.584 235.042 771.656L235.858 769.736L235.81 771.32L230.362 757.688H232.306L236.77 768.944H236.266L240.706 757.688H242.698L236.818 772.184C236.562 772.808 236.234 773.4 235.834 773.96C235.45 774.52 234.962 774.968 234.37 775.304C233.778 775.656 233.058 775.832 232.21 775.832ZM250.458 770.84C249.194 770.84 248.082 770.544 247.122 769.952C246.162 769.36 245.41 768.56 244.866 767.552C244.322 766.528 244.05 765.376 244.05 764.096C244.05 762.816 244.322 761.672 244.866 760.664C245.41 759.656 246.162 758.864 247.122 758.288C248.082 757.696 249.194 757.4 250.458 757.4C251.258 757.4 252.01 757.544 252.714 757.832C253.418 758.12 254.042 758.512 254.586 759.008C255.13 759.488 255.538 760.048 255.81 760.688L254.178 761.528C253.858 760.84 253.37 760.28 252.714 759.848C252.058 759.416 251.306 759.2 250.458 759.2C249.61 759.2 248.842 759.416 248.154 759.848C247.482 760.264 246.946 760.848 246.546 761.6C246.162 762.336 245.97 763.176 245.97 764.12C245.97 765.048 246.162 765.888 246.546 766.64C246.946 767.376 247.482 767.96 248.154 768.392C248.842 768.824 249.61 769.04 250.458 769.04C251.306 769.04 252.05 768.824 252.69 768.392C253.346 767.96 253.842 767.384 254.178 766.664L255.81 767.552C255.538 768.176 255.13 768.736 254.586 769.232C254.042 769.728 253.418 770.12 252.714 770.408C252.01 770.696 251.258 770.84 250.458 770.84ZM258.969 770.552V752.384H260.769V770.552H258.969ZM264.453 770.552V757.688H266.253V770.552H264.453ZM264.453 755.312V752.672H266.253V755.312H264.453ZM269.938 770.552V757.688H271.738V760.184L271.33 760.088C271.65 759.256 272.17 758.6 272.89 758.12C273.626 757.64 274.474 757.4 275.434 757.4C276.346 757.4 277.162 757.608 277.882 758.024C278.618 758.44 279.194 759.016 279.61 759.752C280.042 760.472 280.258 761.288 280.258 762.2V770.552H278.458V762.896C278.458 762.112 278.314 761.448 278.026 760.904C277.754 760.36 277.362 759.944 276.85 759.656C276.354 759.352 275.778 759.2 275.122 759.2C274.466 759.2 273.882 759.352 273.37 759.656C272.858 759.944 272.458 760.368 272.17 760.928C271.882 761.472 271.738 762.128 271.738 762.896V770.552H269.938ZM289.792 775.832C288.912 775.832 288.096 775.696 287.344 775.424C286.608 775.152 285.968 774.776 285.424 774.296C284.896 773.832 284.488 773.288 284.2 772.664L285.856 771.776C286.112 772.384 286.568 772.912 287.224 773.36C287.88 773.808 288.72 774.032 289.744 774.032C290.528 774.032 291.248 773.88 291.904 773.576C292.56 773.272 293.088 772.824 293.488 772.232C293.888 771.64 294.088 770.912 294.088 770.048V767.192L294.376 767.456C293.928 768.384 293.264 769.104 292.384 769.616C291.504 770.112 290.544 770.36 289.504 770.36C288.304 770.36 287.224 770.072 286.264 769.496C285.304 768.92 284.544 768.144 283.984 767.168C283.44 766.176 283.168 765.08 283.168 763.88C283.168 762.664 283.44 761.568 283.984 760.592C284.544 759.616 285.296 758.84 286.24 758.264C287.2 757.688 288.288 757.4 289.504 757.4C290.544 757.4 291.488 757.64 292.336 758.12C293.2 758.6 293.88 759.248 294.376 760.064L294.088 760.568V757.688H295.888V770.048C295.888 771.152 295.624 772.136 295.096 773C294.584 773.88 293.864 774.568 292.936 775.064C292.024 775.576 290.976 775.832 289.792 775.832ZM289.6 768.56C290.432 768.56 291.184 768.352 291.856 767.936C292.528 767.504 293.064 766.936 293.464 766.232C293.88 765.512 294.088 764.728 294.088 763.88C294.088 763.032 293.88 762.256 293.464 761.552C293.064 760.832 292.528 760.264 291.856 759.848C291.184 759.416 290.432 759.2 289.6 759.2C288.752 759.2 287.984 759.416 287.296 759.848C286.608 760.264 286.064 760.824 285.664 761.528C285.28 762.232 285.088 763.016 285.088 763.88C285.088 764.728 285.28 765.512 285.664 766.232C286.064 766.936 286.6 767.504 287.272 767.936C287.96 768.352 288.736 768.56 289.6 768.56ZM301.264 775.832C301.152 775.832 301 775.824 300.808 775.808C300.6 775.792 300.432 775.768 300.304 775.736V774.08C300.64 774.128 300.976 774.152 301.312 774.152C301.968 774.152 302.52 773.952 302.968 773.552C303.432 773.152 303.664 772.552 303.664 771.752V757.688H305.464V771.752C305.464 772.632 305.272 773.376 304.888 773.984C304.504 774.592 303.992 775.048 303.352 775.352C302.728 775.672 302.032 775.832 301.264 775.832ZM303.664 755.312V752.672H305.464V755.312H303.664ZM313.709 770.84C312.813 770.84 311.997 770.632 311.261 770.216C310.525 769.784 309.941 769.192 309.509 768.44C309.093 767.672 308.885 766.792 308.885 765.8V757.688H310.685V765.584C310.685 766.272 310.821 766.88 311.093 767.408C311.381 767.92 311.773 768.32 312.269 768.608C312.781 768.896 313.365 769.04 314.021 769.04C314.677 769.04 315.261 768.896 315.773 768.608C316.285 768.304 316.685 767.88 316.973 767.336C317.261 766.776 317.405 766.112 317.405 765.344V757.688H319.205V770.552H317.405V768.056L317.813 768.152C317.509 768.984 316.989 769.64 316.253 770.12C315.517 770.6 314.669 770.84 313.709 770.84ZM327.371 770.84C326.139 770.84 325.059 770.528 324.131 769.904C323.203 769.28 322.531 768.432 322.115 767.36L323.627 766.64C323.995 767.424 324.507 768.048 325.163 768.512C325.835 768.976 326.571 769.208 327.371 769.208C328.139 769.208 328.787 769.024 329.315 768.656C329.843 768.272 330.107 767.776 330.107 767.168C330.107 766.72 329.979 766.368 329.723 766.112C329.467 765.84 329.171 765.632 328.835 765.488C328.499 765.344 328.203 765.24 327.947 765.176L326.099 764.648C324.915 764.312 324.059 763.84 323.531 763.232C323.003 762.624 322.739 761.92 322.739 761.12C322.739 760.368 322.931 759.712 323.315 759.152C323.699 758.592 324.219 758.16 324.875 757.856C325.531 757.552 326.259 757.4 327.059 757.4C328.147 757.4 329.131 757.688 330.011 758.264C330.907 758.824 331.539 759.608 331.907 760.616L330.371 761.336C330.051 760.616 329.587 760.056 328.979 759.656C328.387 759.24 327.723 759.032 326.987 759.032C326.267 759.032 325.691 759.216 325.259 759.584C324.827 759.952 324.611 760.416 324.611 760.976C324.611 761.408 324.723 761.752 324.947 762.008C325.171 762.264 325.427 762.456 325.715 762.584C326.019 762.712 326.283 762.808 326.507 762.872L328.643 763.496C329.683 763.8 330.491 764.272 331.067 764.912C331.659 765.552 331.955 766.304 331.955 767.168C331.955 767.872 331.755 768.504 331.355 769.064C330.971 769.624 330.435 770.064 329.747 770.384C329.059 770.688 328.267 770.84 327.371 770.84ZM340.038 770.696C338.886 770.696 337.998 770.36 337.374 769.688C336.75 769.016 336.438 768.056 336.438 766.808V759.488H334.062V757.688H334.662C335.206 757.688 335.638 757.512 335.958 757.16C336.278 756.792 336.438 756.336 336.438 755.792V754.712H338.238V757.688H341.07V759.488H338.238V766.808C338.238 767.24 338.302 767.624 338.43 767.96C338.558 768.28 338.774 768.536 339.078 768.728C339.398 768.92 339.822 769.016 340.35 769.016C340.478 769.016 340.63 769.008 340.806 768.992C340.982 768.976 341.134 768.96 341.262 768.944V770.552C341.07 770.6 340.854 770.632 340.614 770.648C340.374 770.68 340.182 770.696 340.038 770.696ZM354.596 775.832C353.716 775.832 352.9 775.696 352.148 775.424C351.412 775.152 350.772 774.776 350.228 774.296C349.7 773.832 349.292 773.288 349.004 772.664L350.66 771.776C350.916 772.384 351.372 772.912 352.028 773.36C352.684 773.808 353.524 774.032 354.548 774.032C355.332 774.032 356.052 773.88 356.708 773.576C357.364 773.272 357.892 772.824 358.292 772.232C358.692 771.64 358.892 770.912 358.892 770.048V767.192L359.18 767.456C358.732 768.384 358.068 769.104 357.188 769.616C356.308 770.112 355.348 770.36 354.308 770.36C353.108 770.36 352.028 770.072 351.068 769.496C350.108 768.92 349.348 768.144 348.788 767.168C348.244 766.176 347.972 765.08 347.972 763.88C347.972 762.664 348.244 761.568 348.788 760.592C349.348 759.616 350.1 758.84 351.044 758.264C352.004 757.688 353.092 757.4 354.308 757.4C355.348 757.4 356.292 757.64 357.14 758.12C358.004 758.6 358.684 759.248 359.18 760.064L358.892 760.568V757.688H360.692V770.048C360.692 771.152 360.428 772.136 359.9 773C359.388 773.88 358.668 774.568 357.74 775.064C356.828 775.576 355.78 775.832 354.596 775.832ZM354.404 768.56C355.236 768.56 355.988 768.352 356.66 767.936C357.332 767.504 357.868 766.936 358.268 766.232C358.684 765.512 358.892 764.728 358.892 763.88C358.892 763.032 358.684 762.256 358.268 761.552C357.868 760.832 357.332 760.264 356.66 759.848C355.988 759.416 355.236 759.2 354.404 759.2C353.556 759.2 352.788 759.416 352.1 759.848C351.412 760.264 350.868 760.824 350.468 761.528C350.084 762.232 349.892 763.016 349.892 763.88C349.892 764.728 350.084 765.512 350.468 766.232C350.868 766.936 351.404 767.504 352.076 767.936C352.764 768.352 353.54 768.56 354.404 768.56ZM370.415 770.84C369.199 770.84 368.095 770.552 367.103 769.976C366.111 769.384 365.319 768.584 364.727 767.576C364.151 766.552 363.863 765.392 363.863 764.096C363.863 762.816 364.151 761.672 364.727 760.664C365.303 759.656 366.079 758.864 367.055 758.288C368.047 757.696 369.167 757.4 370.415 757.4C371.663 757.4 372.775 757.688 373.751 758.264C374.743 758.84 375.519 759.632 376.079 760.64C376.655 761.648 376.943 762.8 376.943 764.096C376.943 765.408 376.647 766.576 376.055 767.6C375.463 768.608 374.671 769.4 373.679 769.976C372.703 770.552 371.615 770.84 370.415 770.84ZM370.415 769.04C371.279 769.04 372.055 768.824 372.743 768.392C373.447 767.96 373.999 767.368 374.399 766.616C374.815 765.864 375.023 765.024 375.023 764.096C375.023 763.168 374.815 762.336 374.399 761.6C373.999 760.864 373.447 760.28 372.743 759.848C372.055 759.416 371.279 759.2 370.415 759.2C369.551 759.2 368.767 759.416 368.063 759.848C367.375 760.28 366.823 760.864 366.407 761.6C365.991 762.336 365.783 763.168 365.783 764.096C365.783 765.024 365.991 765.864 366.407 766.616C366.823 767.368 367.375 767.96 368.063 768.392C368.767 768.824 369.551 769.04 370.415 769.04ZM384.803 770.696C383.651 770.696 382.763 770.36 382.139 769.688C381.515 769.016 381.203 768.056 381.203 766.808V759.488H378.827V757.688H379.427C379.971 757.688 380.403 757.512 380.723 757.16C381.043 756.792 381.203 756.336 381.203 755.792V754.712H383.003V757.688H385.835V759.488H383.003V766.808C383.003 767.24 383.067 767.624 383.195 767.96C383.323 768.28 383.539 768.536 383.843 768.728C384.163 768.92 384.587 769.016 385.115 769.016C385.243 769.016 385.395 769.008 385.571 768.992C385.747 768.976 385.899 768.96 386.027 768.944V770.552C385.835 770.6 385.619 770.632 385.379 770.648C385.139 770.68 384.947 770.696 384.803 770.696ZM393.266 770.552V757.688H395.066V759.8L394.826 759.488C395.13 758.88 395.586 758.4 396.194 758.048C396.818 757.696 397.57 757.52 398.45 757.52H399.266V759.32H398.138C397.21 759.32 396.466 759.608 395.906 760.184C395.346 760.76 395.066 761.576 395.066 762.632V770.552H393.266ZM407.231 770.84C406.031 770.84 404.943 770.552 403.967 769.976C403.007 769.384 402.247 768.576 401.687 767.552C401.127 766.528 400.847 765.368 400.847 764.072C400.847 762.776 401.119 761.632 401.663 760.64C402.207 759.632 402.943 758.84 403.871 758.264C404.815 757.688 405.871 757.4 407.039 757.4C407.967 757.4 408.791 757.576 409.511 757.928C410.247 758.264 410.871 758.728 411.383 759.32C411.895 759.896 412.287 760.552 412.559 761.288C412.831 762.008 412.967 762.752 412.967 763.52C412.967 763.68 412.959 763.864 412.943 764.072C412.927 764.264 412.903 764.464 412.871 764.672H401.999V762.992H411.839L410.975 763.712C411.119 762.832 411.015 762.048 410.663 761.36C410.327 760.656 409.839 760.104 409.199 759.704C408.559 759.288 407.839 759.08 407.039 759.08C406.239 759.08 405.495 759.288 404.807 759.704C404.135 760.12 403.607 760.704 403.223 761.456C402.839 762.192 402.687 763.072 402.767 764.096C402.687 765.12 402.847 766.016 403.247 766.784C403.663 767.536 404.223 768.12 404.927 768.536C405.647 768.952 406.415 769.16 407.231 769.16C408.175 769.16 408.967 768.936 409.607 768.488C410.247 768.04 410.767 767.48 411.167 766.808L412.703 767.624C412.447 768.2 412.055 768.736 411.527 769.232C410.999 769.712 410.367 770.104 409.631 770.408C408.911 770.696 408.111 770.84 407.231 770.84ZM418.973 770.552L414.557 757.688H416.597L420.245 768.944H419.525L422.957 757.688H424.757L428.189 768.944H427.469L431.141 757.688H433.157L428.741 770.552H426.941L423.605 759.536H424.109L420.773 770.552H418.973ZM438.517 770.84C437.701 770.84 436.973 770.688 436.333 770.384C435.693 770.064 435.189 769.632 434.821 769.088C434.453 768.544 434.269 767.92 434.269 767.216C434.269 766.544 434.413 765.936 434.701 765.392C434.989 764.832 435.437 764.36 436.045 763.976C436.653 763.592 437.429 763.32 438.373 763.16L443.413 762.32V763.952L438.805 764.72C437.877 764.88 437.205 765.176 436.789 765.608C436.389 766.04 436.189 766.552 436.189 767.144C436.189 767.72 436.413 768.208 436.861 768.608C437.325 769.008 437.917 769.208 438.637 769.208C439.517 769.208 440.285 769.024 440.941 768.656C441.597 768.272 442.109 767.76 442.477 767.12C442.845 766.48 443.029 765.768 443.029 764.984V761.72C443.029 760.952 442.749 760.328 442.189 759.848C441.629 759.368 440.901 759.128 440.005 759.128C439.221 759.128 438.533 759.328 437.941 759.728C437.349 760.112 436.909 760.616 436.621 761.24L434.989 760.352C435.229 759.808 435.605 759.312 436.117 758.864C436.645 758.416 437.245 758.064 437.917 757.808C438.589 757.536 439.285 757.4 440.005 757.4C440.949 757.4 441.781 757.584 442.501 757.952C443.237 758.32 443.805 758.832 444.205 759.488C444.621 760.128 444.829 760.872 444.829 761.72V770.552H443.029V767.984L443.293 768.248C443.069 768.728 442.717 769.168 442.237 769.568C441.773 769.952 441.221 770.264 440.581 770.504C439.957 770.728 439.269 770.84 438.517 770.84ZM448.532 770.552V757.688H450.332V759.8L450.092 759.488C450.396 758.88 450.852 758.4 451.46 758.048C452.084 757.696 452.836 757.52 453.716 757.52H454.532V759.32H453.404C452.476 759.32 451.732 759.608 451.172 760.184C450.612 760.76 450.332 761.576 450.332 762.632V770.552H448.532ZM462.449 770.84C461.249 770.84 460.169 770.552 459.209 769.976C458.249 769.384 457.489 768.584 456.929 767.576C456.385 766.552 456.113 765.4 456.113 764.12C456.113 762.824 456.385 761.672 456.929 760.664C457.489 759.656 458.241 758.864 459.185 758.288C460.145 757.696 461.233 757.4 462.449 757.4C463.553 757.4 464.537 757.64 465.401 758.12C466.265 758.6 466.945 759.248 467.441 760.064L467.153 760.568V752.384H468.953V770.552H467.153V767.672L467.441 767.936C466.993 768.864 466.321 769.584 465.425 770.096C464.545 770.592 463.553 770.84 462.449 770.84ZM462.545 769.04C463.409 769.04 464.185 768.824 464.873 768.392C465.577 767.96 466.129 767.376 466.529 766.64C466.945 765.888 467.153 765.048 467.153 764.12C467.153 763.192 466.945 762.36 466.529 761.624C466.129 760.872 465.577 760.28 464.873 759.848C464.185 759.416 463.409 759.2 462.545 759.2C461.697 759.2 460.929 759.416 460.241 759.848C459.553 760.28 459.009 760.864 458.609 761.6C458.225 762.336 458.033 763.176 458.033 764.12C458.033 765.048 458.225 765.888 458.609 766.64C459.009 767.376 459.545 767.96 460.217 768.392C460.905 768.824 461.681 769.04 462.545 769.04ZM472.649 770.552V757.688H474.449V770.552H472.649ZM472.649 755.312V752.672H474.449V755.312H472.649ZM478.133 770.552V757.688H479.933V760.184L479.525 760.088C479.845 759.256 480.365 758.6 481.085 758.12C481.821 757.64 482.669 757.4 483.629 757.4C484.541 757.4 485.357 757.608 486.077 758.024C486.813 758.44 487.389 759.016 487.805 759.752C488.237 760.472 488.453 761.288 488.453 762.2V770.552H486.653V762.896C486.653 762.112 486.509 761.448 486.221 760.904C485.949 760.36 485.557 759.944 485.045 759.656C484.549 759.352 483.973 759.2 483.317 759.2C482.661 759.2 482.077 759.352 481.565 759.656C481.053 759.944 480.653 760.368 480.365 760.928C480.077 761.472 479.933 762.128 479.933 762.896V770.552H478.133ZM497.987 775.832C497.107 775.832 496.291 775.696 495.539 775.424C494.803 775.152 494.163 774.776 493.619 774.296C493.091 773.832 492.683 773.288 492.395 772.664L494.051 771.776C494.307 772.384 494.763 772.912 495.419 773.36C496.075 773.808 496.915 774.032 497.939 774.032C498.723 774.032 499.443 773.88 500.099 773.576C500.755 773.272 501.283 772.824 501.683 772.232C502.083 771.64 502.283 770.912 502.283 770.048V767.192L502.571 767.456C502.123 768.384 501.459 769.104 500.579 769.616C499.699 770.112 498.739 770.36 497.699 770.36C496.499 770.36 495.419 770.072 494.459 769.496C493.499 768.92 492.739 768.144 492.179 767.168C491.635 766.176 491.363 765.08 491.363 763.88C491.363 762.664 491.635 761.568 492.179 760.592C492.739 759.616 493.491 758.84 494.435 758.264C495.395 757.688 496.483 757.4 497.699 757.4C498.739 757.4 499.683 757.64 500.531 758.12C501.395 758.6 502.075 759.248 502.571 760.064L502.283 760.568V757.688H504.083V770.048C504.083 771.152 503.819 772.136 503.291 773C502.779 773.88 502.059 774.568 501.131 775.064C500.219 775.576 499.171 775.832 497.987 775.832ZM497.795 768.56C498.627 768.56 499.379 768.352 500.051 767.936C500.723 767.504 501.259 766.936 501.659 766.232C502.075 765.512 502.283 764.728 502.283 763.88C502.283 763.032 502.075 762.256 501.659 761.552C501.259 760.832 500.723 760.264 500.051 759.848C499.379 759.416 498.627 759.2 497.795 759.2C496.947 759.2 496.179 759.416 495.491 759.848C494.803 760.264 494.259 760.824 493.859 761.528C493.475 762.232 493.283 763.016 493.283 763.88C493.283 764.728 493.475 765.512 493.859 766.232C494.259 766.936 494.795 767.504 495.467 767.936C496.155 768.352 496.931 768.56 497.795 768.56ZM508.478 765.416L508.358 752.672H510.278L510.158 765.416H508.478ZM508.358 770.552V767.912H510.278V770.552H508.358Z" fill="white"/>
<path d="M439.571 92.4423V87.5376" stroke="white" stroke-width="3" stroke-linecap="round"/>
<path d="M436.301 413.646C438.06 410.48 440.297 408.015 442.84 405.471" stroke="black" stroke-width="3" stroke-linecap="round"/>
</svg>